<svg xmlns="http://www.w3.org/2000/svg" width="260" height="260" viewBox="0 0 260 260"><path fill="#fff" d="M9.75 0h240.5A9.75 9.75 0 0 1 260 9.75v240.5a9.75 9.75 0 0 1-9.75 9.75H9.75A9.75 9.75 0 0 1 0 250.25V9.75A9.75 9.75 0 0 1 9.75 0"/><path fill="#3178c6" d="M9.75 0h240.5A9.75 9.75 0 0 1 260 9.75v240.5a9.75 9.75 0 0 1-9.75 9.75H9.75A9.75 9.75 0 0 1 0 250.25V9.75A9.75 9.75 0 0 1 9.75 0m134.78 138.32v-21.324H51.998v21.324h33.036v94.946h26.298V138.32zm10.485 92.439q6.361 3.243 15.048 4.865 8.685 1.622 18.309 1.622 9.38 0 17.82-1.784 8.442-1.784 14.803-5.879c6.361-4.095 7.598-6.297 10.072-10.703s3.711-9.852 3.711-16.339q0-7.054-2.12-12.365t-6.117-9.447c-3.996-4.136-5.859-5.23-9.583-7.419q-5.587-3.284-12.601-6.203-5.137-2.109-9.216-4.095-4.077-1.986-6.932-4.054t-4.404-4.379q-1.55-2.31-1.55-5.23 0-2.676 1.387-4.824 1.386-2.15 3.915-3.69t6.198-2.392q3.67-.85 8.156-.851 3.262 0 6.891.486 3.63.487 7.299 1.5a51 51 0 0 1 7.137 2.555 39.4 39.4 0 0 1 6.402 3.567v-24.244q-5.954-2.271-13.008-3.365-7.056-1.095-16.189-1.095-9.298 0-17.617 1.987-8.318 1.986-14.639 6.203c-6.321 4.217-7.544 6.392-9.991 10.743q-3.67 6.528-3.67 15.609 0 11.597 6.729 19.785 6.728 8.19 20.43 13.866a277 277 0 0 1 10.031 4.298q4.649 2.108 8.033 4.378 3.385 2.27 5.342 4.946c1.957 2.676 1.958 3.811 1.958 6.082q0 2.514-1.224 4.662-1.223 2.15-3.71 3.73-2.488 1.582-6.199 2.473-3.71.892-8.686.892-8.481 0-16.8-2.959c-8.319-2.959-10.684-4.933-15.415-8.879z"/></svg>